<svg width="446" height="410" viewBox="0 0 446 410" fill="none" xmlns="http://www.w3.org/2000/svg">
<path d="M390.235 218.556C390.235 218.556 377.679 286.219 313.996 322.886C250.324 359.553 171.17 350.806 106.831 345.405C42.4916 340.004 -0.921204 296.494 0.0148315 240.881C0.950867 185.267 52.0456 176.692 87.9055 118.679C123.765 60.6774 124.519 39.9232 186.2 10.2927C247.871 -19.3377 331.684 17.4045 367.533 89.7484C403.383 162.092 390.224 218.545 390.224 218.545L390.235 218.556Z" fill="#E5F1FF"/>
<path opacity="0.7" d="M390.235 218.556C390.235 218.556 386.683 315.333 323 352C259.328 388.667 167.839 374.401 103.5 369C39.1611 363.599 2.06421 308.614 3.00024 253C3.93628 197.386 38.1403 173.013 74.0002 115C109.86 56.998 103.5 33.0002 176.5 6.5002C244.5 -9 331.684 17.4045 367.533 89.7484C403.383 162.092 390.224 218.545 390.224 218.545L390.235 218.556Z" fill="#E5F1FF"/>
<path d="M25.913 15.167H277.331C283.273 15.167 288.09 19.984 288.09 25.926V357.681C288.09 363.624 283.273 368.441 277.331 368.441H25.913C19.9709 368.441 15.1539 363.624 15.1539 357.681V25.926C15.1539 19.984 19.9709 15.167 25.913 15.167Z" stroke="#263238" stroke-width="1.02" stroke-linecap="round" stroke-linejoin="round"/>
<path d="M173.494 112.246V113.354H174.592" stroke="#263238" stroke-width="1.02" stroke-linecap="round" stroke-linejoin="round"/>
<path d="M176.766 113.354H240.771" stroke="#263238" stroke-width="1.02" stroke-linecap="round" stroke-linejoin="round"/>
<path d="M241.858 113.354H242.955V112.246" stroke="#263238" stroke-width="1.02" stroke-linecap="round" stroke-linejoin="round"/>
<path d="M242.955 110.126V60.3442" stroke="#263238" stroke-width="1.02" stroke-linecap="round" stroke-linejoin="round"/>
<path d="M242.955 59.2898V58.1816H241.858" stroke="#263238" stroke-width="1.02" stroke-linecap="round" stroke-linejoin="round"/>
<path d="M239.684 58.1816H175.679" stroke="#263238" stroke-width="1.02" stroke-linecap="round" stroke-linejoin="round"/>
<path d="M174.592 58.1816H173.494V59.2898" stroke="#263238" stroke-width="1.02" stroke-linecap="round" stroke-linejoin="round"/>
<path d="M173.495 61.4092V111.191" stroke="#263238" stroke-width="1.02" stroke-linecap="round" stroke-linejoin="round"/>
<path d="M184.577 66.9932H231.863V104.542H184.577V66.9932Z" fill="#006EF2" stroke="#263238" stroke-width="1.02" stroke-linecap="round" stroke-linejoin="round"/>
<path d="M234.649 64.2065L250.873 51.6938" stroke="#263238" stroke-width="1.02" stroke-linecap="round" stroke-linejoin="round"/>
<path d="M181.338 106.393L167.426 118.454" stroke="#263238" stroke-width="1.02" stroke-linecap="round" stroke-linejoin="round"/>
<path d="M251.509 55.8145L251.993 50.4996H246.43" stroke="#263238" stroke-width="1.02" stroke-linecap="round" stroke-linejoin="round"/>
<path d="M167.05 113.418L166.082 119.228L172.86 119.465" stroke="#263238" stroke-width="1.02" stroke-linecap="round" stroke-linejoin="round"/>
<path d="M126.025 254.943H148.985V263.228H126.025V254.943Z" fill="#263238"/>
<path d="M116.697 259.085L131.415 250.586V267.585L116.697 259.085Z" fill="#263238"/>
<path d="M165.544 197.802H218.349C222.467 197.802 225.805 201.14 225.805 205.258V322.51C225.805 326.628 222.467 329.966 218.349 329.966H165.544C161.426 329.966 158.087 326.628 158.087 322.51V205.258C158.087 201.14 161.426 197.802 165.544 197.802Z" fill="#263238" stroke="#263238" stroke-width="0.83" stroke-linecap="round" stroke-linejoin="round"/>
<path d="M161.089 206.775H222.793V322.112H161.089V206.775Z" fill="white" stroke="#263238" stroke-width="0.83" stroke-linecap="round" stroke-linejoin="round"/>
<path d="M172.526 348.17L167.802 329.858C167.297 327.879 167.039 325.856 167.039 323.812V301.853C166.953 301.573 166.899 301.282 166.899 300.981C166.899 299.066 168.652 297.506 170.815 297.506C171.945 297.506 172.956 297.936 173.677 298.625C173.849 296.85 175.506 295.44 177.561 295.44C178.96 295.44 180.165 296.086 180.864 297.065C181.068 295.311 182.715 293.945 184.737 293.945C186.136 293.945 187.352 294.59 188.04 295.569C188.04 292.664 188.094 278.731 188.524 277.591C189.945 273.922 197.099 275.59 195.851 279.495V311.708C195.851 309.448 197.53 306.468 198.229 304.273C198.885 302.218 199.348 299.98 200.639 298.141C202.855 294.988 206.761 296.72 206.535 300.023C206.341 302.918 204.254 305.199 203.124 307.813C201.037 312.665 202.285 317.722 200.316 322.585C199.757 323.952 196.077 329.891 194.872 331.515C193.646 333.161 192.344 337.476 192.344 337.476L194.173 348.17" fill="white"/>
<path d="M172.526 348.17L167.802 329.858C167.297 327.879 167.039 325.856 167.039 323.812V301.853C166.953 301.573 166.899 301.282 166.899 300.981C166.899 299.066 168.652 297.506 170.815 297.506C171.945 297.506 172.956 297.936 173.677 298.625C173.849 296.85 175.506 295.44 177.561 295.44C178.96 295.44 180.165 296.086 180.864 297.065C181.068 295.311 182.715 293.945 184.737 293.945C186.136 293.945 187.352 294.59 188.04 295.569C188.04 292.664 188.094 278.731 188.524 277.591C189.945 273.922 197.099 275.59 195.851 279.495V311.708C195.851 309.448 197.53 306.468 198.229 304.273C198.885 302.218 199.348 299.98 200.639 298.141C202.855 294.988 206.761 296.72 206.535 300.023C206.341 302.918 204.254 305.199 203.124 307.813C201.037 312.665 202.285 317.722 200.316 322.585C199.757 323.952 196.077 329.891 194.872 331.515C193.646 333.161 192.344 337.476 192.344 337.476L194.173 348.17" stroke="#263238" stroke-width="1.02" stroke-linecap="round" stroke-linejoin="round"/>
<path d="M191.881 266.498V272.523" stroke="#263238" stroke-width="1.02" stroke-linecap="round" stroke-linejoin="round"/>
<path d="M185.114 278.172H180.218" stroke="#263238" stroke-width="1.02" stroke-linecap="round" stroke-linejoin="round"/>
<path d="M205.438 278.172H200.542" stroke="#263238" stroke-width="1.02" stroke-linecap="round" stroke-linejoin="round"/>
<path d="M198.66 271.77L196.777 274.783" stroke="#263238" stroke-width="1.02" stroke-linecap="round" stroke-linejoin="round"/>
<path d="M187.373 275.159L184.737 271.77" stroke="#263238" stroke-width="1.02" stroke-linecap="round" stroke-linejoin="round"/>
<path d="M163.284 251.447H220.49V258.601H163.284V251.447Z" stroke="#263238" stroke-width="1.02" stroke-linecap="round" stroke-linejoin="round"/>
<path d="M191.128 213.058H218.607V245.798H191.128V213.058Z" stroke="#263238" stroke-width="1.02" stroke-linecap="round" stroke-linejoin="round"/>
<path d="M218.607 213.058L191.128 245.798" stroke="#263238" stroke-width="1.02" stroke-linecap="round" stroke-linejoin="round"/>
<path d="M219.36 309.029V262.356H163.66V308.652" stroke="#263238" stroke-width="1.02" stroke-linecap="round" stroke-linejoin="round"/>
<path d="M51.6483 197.802H104.454C108.572 197.802 111.91 201.14 111.91 205.258V322.51C111.91 326.628 108.572 329.966 104.454 329.966H51.6483C47.5305 329.966 44.1923 326.628 44.1923 322.51V205.258C44.1923 201.14 47.5305 197.802 51.6483 197.802Z" fill="#263238" stroke="#263238" stroke-width="0.83" stroke-linecap="round" stroke-linejoin="round"/>
<path d="M47.1941 206.775H108.897V322.112H47.1941V206.775Z" fill="#1680FF" stroke="#263238" stroke-width="0.83" stroke-linecap="round" stroke-linejoin="round"/>
<path d="M50.0018 212.305H105.701V273.277H50.0018V212.305Z" stroke="#E5F1FF" stroke-width="1.02" stroke-linecap="round" stroke-linejoin="round"/>
<path d="M105.701 278.925H50.0018" stroke="#E5F1FF" stroke-width="1.02" stroke-linecap="round" stroke-linejoin="round"/>
<path d="M105.701 283.433H50.0018" stroke="#E5F1FF" stroke-width="1.02" stroke-linecap="round" stroke-linejoin="round"/>
<path d="M105.701 287.952H50.0018" stroke="#E5F1FF" stroke-width="1.02" stroke-linecap="round" stroke-linejoin="round"/>
<path d="M105.701 292.471H50.0018" stroke="#E5F1FF" stroke-width="1.02" stroke-linecap="round" stroke-linejoin="round"/>
<path d="M105.701 296.99H50.0018" stroke="#E5F1FF" stroke-width="1.02" stroke-linecap="round" stroke-linejoin="round"/>
<path d="M105.701 301.498H50.0018" stroke="#E5F1FF" stroke-width="1.02" stroke-linecap="round" stroke-linejoin="round"/>
<path d="M105.701 306.016H50.0018" stroke="#E5F1FF" stroke-width="1.02" stroke-linecap="round" stroke-linejoin="round"/>
<path d="M105.701 273.277L50.0018 212.305" stroke="#E5F1FF" stroke-width="1.02" stroke-linecap="round" stroke-linejoin="round"/>
<path d="M51.6483 46.0885H104.454C108.572 46.0885 111.91 49.4267 111.91 53.5445V170.797C111.91 174.915 108.572 178.253 104.454 178.253H51.6483C47.5305 178.253 44.1923 174.915 44.1923 170.797V53.5445C44.1923 49.4267 47.5305 46.0885 51.6483 46.0885Z" fill="#263238" stroke="#263238" stroke-width="0.83" stroke-linecap="round" stroke-linejoin="round"/>
<path d="M47.1941 55.0615H108.897V170.399H47.1941V55.0615Z" fill="white" stroke="#263238" stroke-width="0.83" stroke-linecap="round" stroke-linejoin="round"/>
<path d="M180.143 193.864V158.714H130.684" stroke="#263238" stroke-width="1.02" stroke-linecap="round" stroke-linejoin="round"/>
<path d="M132.298 164.201L122.787 158.714L132.298 153.227V164.201Z" fill="#263238"/>
<path d="M79.3097 192.939V165.966" stroke="#263238" stroke-width="1.02" stroke-linecap="round" stroke-linejoin="round"/>
<path d="M73.8225 167.569L79.3096 158.069L84.7968 167.569H73.8225Z" fill="#263238"/>
<path d="M104.809 341.995H79.8586" stroke="#263238" stroke-width="1.02" stroke-linecap="round" stroke-linejoin="round"/>
<path d="M104.809 347.611H79.8586" stroke="#263238" stroke-width="1.02" stroke-linecap="round" stroke-linejoin="round"/>
<path d="M104.809 353.227H79.8586" stroke="#263238" stroke-width="1.02" stroke-linecap="round" stroke-linejoin="round"/>
<path d="M165.307 341.995H140.357" stroke="#263238" stroke-width="1.02" stroke-linecap="round" stroke-linejoin="round"/>
<path d="M165.307 347.611H140.357" stroke="#263238" stroke-width="1.02" stroke-linecap="round" stroke-linejoin="round"/>
<path d="M165.307 353.227H140.357" stroke="#263238" stroke-width="1.02" stroke-linecap="round" stroke-linejoin="round"/>
<path d="M172.171 169.85H147.221" stroke="#263238" stroke-width="1.02" stroke-linecap="round" stroke-linejoin="round"/>
<path d="M172.171 175.466H147.22" stroke="#263238" stroke-width="1.02" stroke-linecap="round" stroke-linejoin="round"/>
<path d="M172.171 181.082H147.22" stroke="#263238" stroke-width="1.02" stroke-linecap="round" stroke-linejoin="round"/>
<path d="M153.462 101.863H128.511" stroke="#263238" stroke-width="1.02" stroke-linecap="round" stroke-linejoin="round"/>
<path d="M153.462 107.479H128.511" stroke="#263238" stroke-width="1.02" stroke-linecap="round" stroke-linejoin="round"/>
<path d="M153.462 113.096H128.511" stroke="#263238" stroke-width="1.02" stroke-linecap="round" stroke-linejoin="round"/>
<path d="M243.267 121.197H218.327" stroke="#263238" stroke-width="1.02" stroke-linecap="round" stroke-linejoin="round"/>
<path d="M243.267 126.814H218.327" stroke="#263238" stroke-width="1.02" stroke-linecap="round" stroke-linejoin="round"/>
<path d="M243.267 132.43H218.327" stroke="#263238" stroke-width="1.02" stroke-linecap="round" stroke-linejoin="round"/>
<path d="M389.919 211.856C389.919 211.856 389.919 207.198 396.439 200.678C402.959 194.158 407.144 190.435 407.144 190.435C407.144 190.435 410.404 201.14 404.347 207.66C398.289 214.18 389.919 220.227 389.919 220.227V211.846V211.856Z" fill="#B4C1EF"/>
<path d="M399.376 240.927C399.376 240.927 399.376 236.268 405.896 229.748C412.416 223.228 416.602 219.506 416.602 219.506C416.602 219.506 419.862 230.211 413.804 236.731C407.747 243.251 399.376 249.298 399.376 249.298V240.916V240.927Z" fill="#B4C1EF"/>
<path d="M390.329 219.786C390.329 219.786 389.834 215.159 382.668 209.36C375.503 203.572 370.941 200.301 370.941 200.301C370.941 200.301 368.832 211.297 375.535 217.139C382.238 222.981 391.211 228.113 391.211 228.113L390.329 219.775V219.786Z" fill="#B4C1EF"/>
<path d="M401.754 254.118C401.754 254.118 400.775 249.567 393.039 244.553C385.303 239.55 380.419 236.785 380.419 236.785C380.419 236.785 379.472 247.942 386.756 253.042C394.04 258.142 403.508 262.305 403.508 262.305L401.754 254.107V254.118Z" fill="#B4C1EF"/>
<path d="M399.602 291.559C399.602 291.559 399.602 286.901 393.082 280.381C386.562 273.861 382.377 270.138 382.377 270.138C382.377 270.138 379.117 280.843 385.174 287.363C391.231 293.883 399.602 299.93 399.602 299.93V291.548V291.559Z" fill="#B4C1EF"/>
<path d="M399.72 300.705C399.72 300.705 399.064 296.1 404.584 288.719C410.114 281.338 413.729 277.056 413.729 277.056C413.729 277.056 418.474 287.191 413.417 294.507C408.36 301.823 400.915 309 400.915 309L399.72 300.705Z" fill="#B4C1EF"/>
<path d="M406.143 327.785C406.143 327.785 406.143 323.126 399.623 316.606C393.103 310.086 388.918 306.364 388.918 306.364C388.918 306.364 385.658 317.069 391.716 323.589C397.773 330.109 406.143 336.156 406.143 336.156V327.774V327.785Z" fill="#B4C1EF"/>
<path d="M401.787 352.337C401.787 352.337 402.97 347.829 398.311 339.878C393.653 331.917 390.543 327.258 390.543 327.258C390.543 327.258 384.68 336.79 388.886 344.634C393.093 352.477 399.667 360.45 399.667 360.45L401.787 352.337Z" fill="#B4C1EF"/>
<path d="M389.327 210.662C389.704 215.643 390.274 220.786 391.113 225.122C393.685 238.431 400.129 247.028 402.712 259.045C405.283 271.074 397.891 286.556 399.871 302.006C401.851 317.446 407.865 326.042 406.144 336.349C404.422 346.656 395.406 374.565 395.406 374.565" stroke="#001F2E" stroke-width="1.03" stroke-linecap="round" stroke-linejoin="round"/>
<path d="M390.393 222.873L383.367 217.483" stroke="#001F2E" stroke-width="1.03" stroke-linecap="round" stroke-linejoin="round"/>
<path d="M390.07 216.665L393.007 211.447" stroke="#001F2E" stroke-width="1.03" stroke-linecap="round" stroke-linejoin="round"/>
<path d="M402.314 258.486C402.314 258.486 396.429 254.075 390.393 249.664" stroke="#001F2E" stroke-width="1.03" stroke-linecap="round" stroke-linejoin="round"/>
<path d="M399.376 249.308C399.376 249.308 404.272 239.701 409.834 233.331" stroke="#001F2E" stroke-width="1.03" stroke-linecap="round" stroke-linejoin="round"/>
<path d="M399.376 298.187C399.376 298.187 394.804 289.203 386.799 281.36" stroke="#001F2E" stroke-width="1.03" stroke-linecap="round" stroke-linejoin="round"/>
<path d="M400.517 304.718C400.517 304.718 403.454 297.692 406.886 292.624C410.318 287.557 410.803 286.911 410.803 286.911" stroke="#001F2E" stroke-width="1.03" stroke-linecap="round" stroke-linejoin="round"/>
<path d="M406.143 336.338C406.143 336.338 403.787 330.367 400.85 325.633C397.913 320.899 393.986 316.649 393.986 316.649" stroke="#001F2E" stroke-width="1.03" stroke-linecap="round" stroke-linejoin="round"/>
<path d="M399.667 360.45C399.667 360.45 400.355 354.876 397.902 350.132C395.449 345.398 392.673 339.19 391.533 336.737" stroke="#001F2E" stroke-width="1.03" stroke-linecap="round" stroke-linejoin="round"/>
<path d="M432.6 274.054C432.6 274.054 433.106 271.139 429.727 266.34C426.349 261.542 424.122 258.755 424.122 258.755C424.122 258.755 420.916 265.114 424.003 269.858C427.091 274.603 431.685 279.305 431.685 279.305L432.6 274.054Z" fill="#B4C1EF"/>
<path d="M423.509 291.258C423.509 291.258 424.014 288.342 420.636 283.544C417.258 278.745 415.031 275.959 415.031 275.959C415.031 275.959 411.824 282.317 414.912 287.062C418 291.807 422.594 296.508 422.594 296.508L423.509 291.258Z" fill="#B4C1EF"/>
<path d="M431.481 278.982C431.481 278.982 432.288 276.131 437.42 273.28C442.541 270.418 445.758 268.868 445.758 268.868C445.758 268.868 445.887 275.991 441.046 278.928C436.204 281.865 430.018 284.103 430.018 284.103L431.481 278.971V278.982Z" fill="#B4C1EF"/>
<path d="M420.593 299.274C420.593 299.274 421.701 296.53 427.091 294.228C432.492 291.925 435.849 290.72 435.849 290.72C435.849 290.72 435.225 297.821 430.104 300.231C424.982 302.641 418.592 304.223 418.592 304.223L420.582 299.274H420.593Z" fill="#B4C1EF"/>
<path d="M417.871 322.986C417.871 322.986 418.377 320.071 423.175 316.692C427.974 313.314 430.997 311.431 430.997 311.431C430.997 311.431 431.879 318.5 427.371 321.932C422.863 325.364 416.957 328.248 416.957 328.248L417.871 322.997V322.986Z" fill="#B4C1EF"/>
<path d="M416.816 328.7C416.816 328.7 417.731 325.881 415.063 320.652C412.394 315.423 410.598 312.346 410.598 312.346C410.598 312.346 406.52 318.188 408.898 323.32C411.275 328.452 415.159 333.767 415.159 333.767L416.806 328.7H416.816Z" fill="#B4C1EF"/>
<path d="M408.628 352.251C408.628 352.251 408.295 349.303 403.701 345.656C399.106 342.008 396.191 339.953 396.191 339.953C396.191 339.953 394.91 346.958 399.203 350.637C403.507 354.317 409.242 357.534 409.242 357.534L408.628 352.24V352.251Z" fill="#B4C1EF"/>
<path d="M409.845 344.989C409.845 344.989 410.351 342.073 415.149 338.695C419.948 335.316 422.971 333.434 422.971 333.434C422.971 333.434 423.853 340.502 419.345 343.934C414.837 347.367 408.93 350.25 408.93 350.25L409.845 345V344.989Z" fill="#B4C1EF"/>
<path d="M409.909 360.858C409.909 360.858 409.662 357.911 413.438 353.424C417.225 348.937 419.678 346.355 419.678 346.355C419.678 346.355 422.325 352.972 418.828 357.426C415.342 361.881 410.35 366.173 410.35 366.173L409.898 360.858H409.909Z" fill="#B4C1EF"/>
<path d="M433.105 273.366C432.331 276.443 431.416 279.617 430.415 282.242C427.36 290.311 422.378 294.992 419.463 302.254C416.547 309.516 419.495 320.028 416.579 329.496C413.664 338.964 408.962 343.698 408.919 350.347C408.876 356.996 411.501 375.48 411.501 375.48" stroke="#001F2E" stroke-width="1.03" stroke-linecap="round" stroke-linejoin="round"/>
<path d="M431.104 280.919L436.096 278.294" stroke="#001F2E" stroke-width="1.03" stroke-linecap="round" stroke-linejoin="round"/>
<path d="M431.987 277.056L430.706 273.463" stroke="#001F2E" stroke-width="1.03" stroke-linecap="round" stroke-linejoin="round"/>
<path d="M419.764 301.952C419.764 301.952 423.928 299.822 428.199 297.713" stroke="#001F2E" stroke-width="1.03" stroke-linecap="round" stroke-linejoin="round"/>
<path d="M422.605 296.519C422.605 296.519 420.571 289.967 417.785 285.362" stroke="#001F2E" stroke-width="1.03" stroke-linecap="round" stroke-linejoin="round"/>
<path d="M417.301 327.161C417.301 327.161 421.142 322.018 427.016 317.973" stroke="#001F2E" stroke-width="1.03" stroke-linecap="round" stroke-linejoin="round"/>
<path d="M415.87 331.131C415.87 331.131 414.794 326.408 413.191 322.857C411.588 319.307 411.351 318.844 411.351 318.844" stroke="#001F2E" stroke-width="1.03" stroke-linecap="round" stroke-linejoin="round"/>
<path d="M409.134 355.393C409.134 355.393 405.831 351.337 403.765 349.82C401.71 348.302 400.279 346.785 400.279 346.785" stroke="#001F2E" stroke-width="1.03" stroke-linecap="round" stroke-linejoin="round"/>
<path d="M408.908 350.358C408.908 350.358 411.039 346.872 413.395 344.214C415.751 341.567 418.678 339.33 418.678 339.33" stroke="#001F2E" stroke-width="1.03" stroke-linecap="round" stroke-linejoin="round"/>
<path d="M410.35 366.173C410.35 366.173 410.522 362.601 412.577 359.901C414.632 357.2 417.042 353.607 418.021 352.197" stroke="#001F2E" stroke-width="1.03" stroke-linecap="round" stroke-linejoin="round"/>
<path d="M424.811 372.263H382.172V404.336C382.172 406.143 383.636 407.607 385.443 407.607H421.54C423.347 407.607 424.811 406.143 424.811 404.336V372.263Z" fill="#263238"/>
<path d="M382.549 377.825H424.811C426.651 377.825 428.146 376.33 428.146 374.49C428.146 372.65 426.651 371.155 424.811 371.155H382.549C380.709 371.155 379.214 372.65 379.214 374.49C379.214 376.33 380.709 377.825 382.549 377.825Z" fill="#263238"/>
<path d="M345.423 389.065C345.423 389.065 347.736 397.963 347.736 400.222C347.736 402.482 348.296 403.977 343.411 404.913C338.527 405.849 335.331 405.29 334.578 403.03C333.825 400.782 333.266 389.506 333.266 389.506L345.101 387.247L345.413 389.054L345.423 389.065Z" fill="#E0E0E0" stroke="#1F0C07" stroke-width="1.03" stroke-linecap="round" stroke-linejoin="round"/>
<path d="M334.589 403.03C334.481 402.697 334.374 402.137 334.266 401.459C339.29 401.621 345.294 400.782 347.736 400.394C347.758 402.546 348.156 403.988 343.411 404.902C338.527 405.838 335.331 405.279 334.578 403.019L334.589 403.03Z" fill="#E0E0E0" stroke="#1F0C07" stroke-width="1.03" stroke-linecap="round" stroke-linejoin="round"/>
<path d="M231.281 389.883C231.281 389.883 227.526 391.195 222.082 392.885C216.637 394.574 205.556 396.457 204.426 396.639C203.296 396.822 203.296 399.082 204.243 400.018C205.179 400.954 210.064 403.773 215.884 405.279C221.705 406.785 241.426 408.098 243.115 406.968C244.536 406.021 244.052 396.822 243.492 394.757C242.933 392.691 231.281 389.872 231.281 389.872V389.883Z" fill="#E0E0E0" stroke="#1F0C07" stroke-width="1.03" stroke-linecap="round" stroke-linejoin="round"/>
<path d="M204.232 400.029C203.608 399.405 203.404 398.189 203.673 397.393C207.481 400.427 215.077 403.762 222.824 404.537C230.592 405.311 240.651 404.677 243.901 404.44C243.761 405.731 243.513 406.71 243.104 406.979C241.415 408.109 221.694 406.796 215.873 405.29C210.053 403.783 205.168 400.965 204.232 400.029Z" fill="#E0E0E0" stroke="#1F0C07" stroke-width="1.03" stroke-linecap="round" stroke-linejoin="round"/>
<path d="M322.141 226.13C322.141 226.13 325.412 245.765 322.873 256.675C322.873 256.675 327.596 299.958 328.327 319.228C328.327 319.228 338.505 353.054 339.969 363.598C341.421 374.142 345.424 389.054 345.424 389.054C345.424 389.054 343.239 390.507 338.15 391.604C333.061 392.691 332.33 388.699 332.33 388.699C332.33 388.699 304.324 324.328 302.14 314.871C299.956 305.413 292.683 271.587 292.683 271.587L262.493 326.867C262.493 326.867 261.04 345.781 256.672 356.691C252.304 367.601 243.944 397.791 243.944 397.791C243.944 397.791 238.489 398.156 234.121 396.704C229.753 395.251 229.753 393.067 229.753 393.067C229.753 393.067 236.294 368.698 236.294 360.704C236.294 352.71 238.844 325.425 240.663 317.786C242.481 310.147 254.843 270.145 256.661 265.777C258.48 261.409 262.482 247.594 262.482 247.594L265.032 226.141C265.032 226.141 296.308 234.866 322.13 226.141L322.141 226.13Z" fill="#1F0C07" stroke="#1F0C07" stroke-width="1.03" stroke-linecap="round" stroke-linejoin="round"/>
<path d="M299.063 133.43C299.063 133.43 300.73 129.804 300.73 127.577C300.73 125.35 301.849 114.763 301.849 114.763C301.849 114.763 285.7 85.5198 281.246 79.9467C276.791 74.3735 271.498 70.199 271.498 70.199C271.498 70.199 260.631 67.9718 258.404 67.9718C256.177 67.9718 253.67 66.8529 253.67 65.465C253.67 64.077 257.296 64.346 259.523 64.346C261.75 64.346 264.537 62.3986 264.537 62.3986C264.537 62.3986 260.911 52.0161 259.803 47.9169C259.222 45.7544 257.296 41.2356 258.684 41.2356C260.072 41.2356 260.351 42.3545 261.191 44.0222C262.03 45.6898 265.645 51.263 265.645 51.263L264.806 39.0085C264.806 39.0085 265.925 37.3408 266.753 39.2882C267.592 41.2356 269.26 47.0885 269.54 48.4764C269.819 49.8643 270.938 51.1231 270.938 51.1231L272.057 41.9779C272.057 41.9779 273.951 39.966 274.284 43.4519C274.467 45.3886 274.284 51.8117 274.284 52.9199C274.284 54.0281 275.403 51.3383 275.403 51.3383C275.403 51.3383 276.06 48.315 276.791 47.9062C277.631 47.4328 278.179 48.4657 277.91 50.6928C277.631 52.9199 278.19 62.1081 278.19 62.1081C278.19 62.1081 279.858 64.3353 282.365 67.4016C284.871 70.4679 304.926 88.5647 312.447 94.4176C319.967 100.271 320.807 105.004 321.915 110.847C323.034 116.7 324.142 150.677 324.142 162.92C324.142 175.164 323.023 194.67 322.195 201.072C321.355 207.474 322.754 215.834 323.862 220.288C324.981 224.742 323.862 228.648 320.796 230.875C317.73 233.102 304.647 234.49 293.78 234.49C282.913 234.49 271.778 233.371 268.432 232.263C265.085 231.144 262.579 230.875 262.579 226.41C262.579 221.945 264.806 213.047 264.806 210.54C264.806 208.033 260.351 182.136 260.351 182.136C260.351 182.136 231.948 190.765 226.654 188.818C221.361 186.87 177.087 145.093 177.087 145.093C177.087 145.093 170.126 142.306 166.5 141.747C162.885 141.187 157.312 138.68 157.032 137.852C156.753 137.013 157.592 137.292 159.819 137.292C162.046 137.292 165.672 138.411 165.672 138.411C165.672 138.411 158.065 133.602 156.763 133.118C155.86 132.784 154.289 130.729 156.484 131.171C159.227 131.719 165.952 133.677 165.952 133.677L157.043 128.104C157.043 128.104 155.655 125.877 157.323 125.877C158.99 125.877 167.35 130.891 167.35 130.891L160.841 124.855C159.582 123.682 160.637 122.047 162.121 122.908C162.154 122.918 169.588 127.179 169.62 127.19C172.407 128.857 175.43 129.783 175.43 129.783L176.818 130.622C176.818 130.622 176.259 127.555 176.259 126.168C176.259 124.78 177.098 121.154 179.045 120.874C180.993 120.594 179.325 123.381 179.325 124.769C179.325 126.157 182.112 133.398 182.112 134.517V137.863C182.112 137.863 191.58 146.222 200.219 150.677C208.848 155.131 228.343 169.892 228.343 169.892C228.343 169.892 250.625 158.477 255.639 154.292C260.653 150.117 266.226 145.103 271.788 140.649C277.362 136.195 280.977 134.248 280.977 134.248L299.084 133.408L299.063 133.43Z" fill="#FFCEB3" stroke="#1F0C07" stroke-width="1.03" stroke-linecap="round" stroke-linejoin="round"/>
<path d="M205.997 154.13C215.454 160.177 228.322 169.925 228.322 169.925C228.322 169.925 250.604 158.509 255.618 154.324C260.631 150.149 266.204 145.136 271.767 140.681C277.34 136.227 280.955 134.28 280.955 134.28L299.063 133.441C299.063 133.441 300.73 129.826 300.73 127.588C300.73 125.35 301.849 114.774 301.849 114.774C301.849 114.774 293.511 99.6787 287.163 89.1133C287.335 88.9411 287.497 88.769 287.669 88.5968C290.778 85.4875 295.093 83.8091 298.869 82.8945C304.119 87.5532 309.338 92.0397 312.436 94.4498C319.957 100.303 320.796 105.037 321.904 110.879C323.023 116.732 324.131 150.709 324.131 162.953C324.131 175.196 323.012 194.703 322.184 201.104C321.345 207.506 322.743 215.866 323.852 220.32C324.97 224.774 323.852 228.68 320.785 230.907C317.719 233.134 304.636 234.522 293.769 234.522C282.903 234.522 271.767 233.403 268.421 232.295C265.075 231.176 262.568 230.907 262.568 226.442C262.568 221.977 264.795 213.079 264.795 210.572C264.795 208.065 260.341 182.168 260.341 182.168C260.341 182.168 231.937 190.797 226.643 188.85C223.814 187.806 209.859 175.401 197.476 164.061C200.004 159.703 203.232 156.411 205.986 154.119L205.997 154.13Z" fill="#006EF2" stroke="#1F0C07" stroke-width="1.03" stroke-linecap="round" stroke-linejoin="round"/>
<path d="M268.991 145.641C268.991 145.641 280.191 148.697 280.88 157.186" stroke="#1F0C07" stroke-width="1.03" stroke-linecap="round" stroke-linejoin="round"/>
<path d="M260.352 182.168C260.352 182.168 273.403 178.575 280.191 171.786" stroke="#1F0C07" stroke-width="1.03" stroke-linecap="round" stroke-linejoin="round"/>
<path d="M267.635 180.275C267.635 180.275 278.836 183.33 289.024 179.253" stroke="#1F0C07" stroke-width="1.03" stroke-linecap="round" stroke-linejoin="round"/>
<path d="M314.921 162.275C314.921 162.275 311.392 186.988 294.328 199.351" stroke="#1F0C07" stroke-width="1.03" stroke-linecap="round" stroke-linejoin="round"/>
<path d="M288.938 206.086C287.647 206.452 286.302 206.753 284.914 207" stroke="#1F0C07" stroke-width="1.03" stroke-linecap="round" stroke-linejoin="round"/>
<path d="M314.921 186.999C314.921 186.999 308.606 197.479 295.835 203.514" stroke="#1F0C07" stroke-width="1.03" stroke-linecap="round" stroke-linejoin="round"/>
<path d="M318.224 132.053C318.224 132.053 307.358 126.619 300.902 131.708" stroke="#1F0C07" stroke-width="1.03" stroke-linecap="round" stroke-linejoin="round"/>
<path d="M315.169 107.264C315.169 107.264 305.325 110.664 302.603 117.453" stroke="#1F0C07" stroke-width="1.03" stroke-linecap="round" stroke-linejoin="round"/>
<path d="M308.725 104.886C308.725 104.886 305.325 107.264 303.969 112.353" stroke="#1F0C07" stroke-width="1.03" stroke-linecap="round" stroke-linejoin="round"/>
<path d="M262.299 88.8766C262.299 88.8766 260.632 98.3446 260.632 100.851C260.632 103.358 263.418 104.198 262.299 107.533C261.18 110.868 258.673 111.148 259.233 113.934C259.792 116.721 263.407 118.389 263.407 118.389C263.407 118.389 265.355 126.189 267.302 129.524C269.25 132.87 276.49 130.364 276.49 130.364L277.05 139.272C277.05 139.272 279.557 142.898 288.745 141.779C297.933 140.66 304.066 137.604 304.066 137.604L305.454 135.657C305.454 135.657 298.213 132.042 297.933 129.535C297.653 127.028 297.933 121.175 297.933 112.826C297.933 104.477 300.44 88.3171 286.798 84.1426C273.155 79.9681 262.288 88.8766 262.288 88.8766H262.299Z" fill="#FFCEB3" stroke="#1F0C07" stroke-width="1.03" stroke-linecap="round" stroke-linejoin="round"/>
<path d="M279.32 111.729C279.32 111.729 282.461 104.52 285.98 108.641C288.26 111.32 285.42 119.228 284.032 120.336C282.644 121.455 279.578 120.896 279.578 120.896C279.578 120.896 284.032 125.35 288.766 125.35C293.5 125.35 297.675 120.896 300.741 113.095C303.807 105.295 306.034 91.9322 302.688 83.8522C299.342 75.7721 282.085 75.4924 278.179 75.4924C274.274 75.4924 268.431 77.7195 268.431 77.7195C268.431 77.7195 255.897 76.6006 255.617 80.7858C255.338 84.9603 257.285 85.2401 257.285 85.2401C257.285 85.2401 248.377 89.9741 252.551 91.9214C256.726 93.8688 263.138 92.7606 267.313 92.7606C271.487 92.7606 272.886 95.827 272.886 95.827C272.886 95.827 268.991 98.3338 270.379 99.4528C271.767 100.572 276.781 102.799 277.34 104.746C277.899 106.694 275.393 109.76 277.06 111.148C278.728 112.536 279.309 111.729 279.309 111.729H279.32Z" fill="#1F0C07" stroke="#1F0C07" stroke-width="1.03" stroke-linecap="round" stroke-linejoin="round"/>
<path d="M263.827 108.372C263.827 109.792 264.408 110.943 265.128 110.943C265.849 110.943 266.43 109.792 266.43 108.372C266.43 106.952 265.849 105.801 265.128 105.801C264.408 105.801 263.827 106.952 263.827 108.372Z" fill="#1F0C07"/>
<path d="M268.388 105.091C268.388 105.091 266.592 100.884 263.74 103.143" stroke="#1F0C07" stroke-width="1.03" stroke-linecap="round" stroke-linejoin="round"/>
<path d="M292.682 271.587L295.232 266.864L307.96 263.593" stroke="#423937" stroke-width="1.03" stroke-linecap="round" stroke-linejoin="round"/>
<path d="M444 408L15.0002 408" stroke="#39405F" stroke-width="3" stroke-linecap="round"/>
</svg>
